<?xml version="1.0" encoding="UTF-8" standalone="no"?>
<!-- Created with Inkscape (http://www.inkscape.org/) -->

<svg
   xmlns:dc="http://purl.org/dc/elements/1.1/"
   xmlns:cc="http://creativecommons.org/ns#"
   xmlns:rdf="http://www.w3.org/1999/02/22-rdf-syntax-ns#"
   xmlns:svg="http://www.w3.org/2000/svg"
   xmlns="http://www.w3.org/2000/svg"
   xmlns:sodipodi="http://sodipodi.sourceforge.net/DTD/sodipodi-0.dtd"
   xmlns:inkscape="http://www.inkscape.org/namespaces/inkscape"
   id="svg3355"
   version="1.1"
   inkscape:version="0.91 r13725"
   xml:space="preserve"
   width="1200"
   height="640"
   viewBox="0 0 1200 640"
   sodipodi:docname="BFieldDiagram.eps"><metadata
     id="metadata3361"><rdf:RDF><cc:Work
         rdf:about=""><dc:format>image/svg+xml</dc:format><dc:type
           rdf:resource="http://purl.org/dc/dcmitype/StillImage" /><dc:title></dc:title></cc:Work></rdf:RDF></metadata><defs
     id="defs3359" /><sodipodi:namedview
     pagecolor="#ffffff"
     bordercolor="#666666"
     borderopacity="1"
     objecttolerance="10"
     gridtolerance="10"
     guidetolerance="10"
     inkscape:pageopacity="0"
     inkscape:pageshadow="2"
     inkscape:window-width="640"
     inkscape:window-height="480"
     id="namedview3357"
     showgrid="false" /><g
     id="g3363"
     inkscape:groupmode="layer"
     inkscape:label="ink_ext_XXXXXX"
     transform="matrix(1.25,0,0,-1.25,0,640)"><g
       id="g3365"
       transform="matrix(-0.1,0,0,0.1,955.94048,-1.4750297)"><path
         d="m 332.969,0 7580.59,0 0,5120 -7580.59,0 0,-5120 z"
         style="fill:#e9afaf;fill-opacity:1;fill-rule:nonzero;stroke:none"
         id="path3367"
         inkscape:connector-curvature="0" /><path
         d="m 1923.55,1074.29 4399.45,0 0,2971.41 -4399.45,0 0,-2971.41 z"
         style="fill:#ffccaa;fill-opacity:1;fill-rule:nonzero;stroke:none"
         id="path3369"
         inkscape:connector-curvature="0" /><path
         d="m 1922.15,4049.69 0,1062.89 -8.6,0"
         style="fill:none;stroke:#000000;stroke-width:7.96799994;stroke-linecap:butt;stroke-linejoin:miter;stroke-miterlimit:4;stroke-dasharray:7.968, 7.968;stroke-dashoffset:0;stroke-opacity:1"
         id="path3371"
         inkscape:connector-curvature="0" /><path
         d="m 371.371,4049.26 c -287.3515,-2.54 1549.369,0 1549.369,0 l -23.32,7.62"
         style="fill:none;stroke:#000000;stroke-width:9.06814957;stroke-linecap:butt;stroke-linejoin:miter;stroke-miterlimit:4;stroke-dasharray:9.06815, 9.06815;stroke-dashoffset:0;stroke-opacity:1"
         id="path3373"
         inkscape:connector-curvature="0" /><path
         d="m 6306.13,4049.69 0,1062.89 -8.59,0"
         style="fill:none;stroke:#000000;stroke-width:7.96799994;stroke-linecap:butt;stroke-linejoin:miter;stroke-miterlimit:4;stroke-dasharray:7.968, 7.968;stroke-dashoffset:0;stroke-opacity:1"
         id="path3375"
         inkscape:connector-curvature="0" /><path
         d="m 6323.4,4049.26 c -287.38,-2.54 1549.33,0 1549.33,0 l -23.32,7.62"
         style="fill:none;stroke:#000000;stroke-width:9.06814957;stroke-linecap:butt;stroke-linejoin:miter;stroke-miterlimit:4;stroke-dasharray:9.06815, 9.06815;stroke-dashoffset:0;stroke-opacity:1"
         id="path3377"
         inkscape:connector-curvature="0" /><path
         d="m 1922.15,1.71875 0,1062.85125 -8.6,0"
         style="fill:none;stroke:#000000;stroke-width:7.96799994;stroke-linecap:butt;stroke-linejoin:miter;stroke-miterlimit:4;stroke-dasharray:7.968, 7.968;stroke-dashoffset:0;stroke-opacity:1"
         id="path3379"
         inkscape:connector-curvature="0" /><path
         d="m 371.371,1073.24 c -287.3515,-2.54 1549.369,0 1549.369,0 l -23.32,7.66"
         style="fill:none;stroke:#000000;stroke-width:9.06814957;stroke-linecap:butt;stroke-linejoin:miter;stroke-miterlimit:4;stroke-dasharray:9.06815, 9.06815;stroke-dashoffset:0;stroke-opacity:1"
         id="path3381"
         inkscape:connector-curvature="0" /><path
         d="m 6322.15,1.71875 0,1062.85125 -8.6,0"
         style="fill:none;stroke:#000000;stroke-width:7.96799994;stroke-linecap:butt;stroke-linejoin:miter;stroke-miterlimit:4;stroke-dasharray:7.968, 7.968;stroke-dashoffset:0;stroke-opacity:1"
         id="path3383"
         inkscape:connector-curvature="0" /><path
         d="m 6323.4,1073.24 c -287.38,-2.54 1549.33,0 1549.33,0 l -23.32,7.66"
         style="fill:none;stroke:#000000;stroke-width:9.06814957;stroke-linecap:butt;stroke-linejoin:miter;stroke-miterlimit:4;stroke-dasharray:9.06815, 9.06815;stroke-dashoffset:0;stroke-opacity:1"
         id="path3385"
         inkscape:connector-curvature="0" /><path
         d="m 6312.85,2939.49 -4347.62,0"
         style="fill:none;stroke:#000094;stroke-width:25.51119995;stroke-linecap:butt;stroke-linejoin:miter;stroke-miterlimit:4;stroke-dasharray:none;stroke-opacity:1"
         id="path3387"
         inkscape:connector-curvature="0" /><path
         d="m 2220.35,2939.49 102.03,102.03 -357.15,-102.03 357.15,-102.07 -102.03,102.07 z"
         style="fill:#000094;fill-opacity:1;fill-rule:evenodd;stroke:none"
         id="path3389"
         inkscape:connector-curvature="0" /><path
         d="m 2220.35,2939.49 102.03,102.03 -357.15,-102.03 357.15,-102.07 -102.03,102.07 z"
         style="fill:none;stroke:#000094;stroke-width:25.51119995;stroke-linecap:butt;stroke-linejoin:miter;stroke-miterlimit:4;stroke-dasharray:none;stroke-opacity:1"
         id="path3391"
         inkscape:connector-curvature="0" /><path
         d="m 6312.85,2203.48 -4347.62,0"
         style="fill:none;stroke:#000094;stroke-width:25.51119995;stroke-linecap:butt;stroke-linejoin:miter;stroke-miterlimit:4;stroke-dasharray:none;stroke-opacity:1"
         id="path3393"
         inkscape:connector-curvature="0" /><path
         d="m 2220.35,2203.48 102.03,102.03 -357.15,-102.03 357.15,-102.03 -102.03,102.03 z"
         style="fill:#000094;fill-opacity:1;fill-rule:evenodd;stroke:none"
         id="path3395"
         inkscape:connector-curvature="0" /><path
         d="m 2220.35,2203.48 102.03,102.03 -357.15,-102.03 357.15,-102.03 -102.03,102.03 z"
         style="fill:none;stroke:#000094;stroke-width:25.51119995;stroke-linecap:butt;stroke-linejoin:miter;stroke-miterlimit:4;stroke-dasharray:none;stroke-opacity:1"
         id="path3397"
         inkscape:connector-curvature="0" /><path
         d="m 371.371,2545.23 c -287.3515,-2.53 1549.369,0 1549.369,0 l -23.32,7.66"
         style="fill:none;stroke:#000000;stroke-width:9.06814957;stroke-linecap:butt;stroke-linejoin:miter;stroke-miterlimit:4;stroke-dasharray:9.06815, 9.06815;stroke-dashoffset:0;stroke-opacity:1"
         id="path3399"
         inkscape:connector-curvature="0" /><path
         d="m 6339.38,2545.23 c -287.35,-2.53 1549.37,0 1549.37,0 l -23.36,7.66"
         style="fill:none;stroke:#000000;stroke-width:9.06814957;stroke-linecap:butt;stroke-linejoin:miter;stroke-miterlimit:4;stroke-dasharray:9.06815, 9.06815;stroke-dashoffset:0;stroke-opacity:1"
         id="path3401"
         inkscape:connector-curvature="0" /><path
         d="m 6312.85,3595.47 -4347.62,0"
         style="fill:none;stroke:#000094;stroke-width:25.51119995;stroke-linecap:butt;stroke-linejoin:miter;stroke-miterlimit:4;stroke-dasharray:none;stroke-opacity:1"
         id="path3403"
         inkscape:connector-curvature="0" /><path
         d="m 2220.35,3595.47 102.03,102.07 -357.15,-102.07 357.15,-102.03 -102.03,102.03 z"
         style="fill:#000094;fill-opacity:1;fill-rule:evenodd;stroke:none"
         id="path3405"
         inkscape:connector-curvature="0" /><path
         d="m 2220.35,3595.47 102.03,102.07 -357.15,-102.07 357.15,-102.03 -102.03,102.03 z"
         style="fill:none;stroke:#000094;stroke-width:25.51119995;stroke-linecap:butt;stroke-linejoin:miter;stroke-miterlimit:4;stroke-dasharray:none;stroke-opacity:1"
         id="path3407"
         inkscape:connector-curvature="0" /><path
         d="m 6312.85,1547.5 -4347.62,0"
         style="fill:none;stroke:#000094;stroke-width:25.51119995;stroke-linecap:butt;stroke-linejoin:miter;stroke-miterlimit:4;stroke-dasharray:none;stroke-opacity:1"
         id="path3409"
         inkscape:connector-curvature="0" /><path
         d="m 2220.35,1547.5 102.03,102.03 -357.15,-102.03 357.15,-102.07 -102.03,102.07 z"
         style="fill:#000094;fill-opacity:1;fill-rule:evenodd;stroke:none"
         id="path3411"
         inkscape:connector-curvature="0" /><path
         d="m 2220.35,1547.5 102.03,102.03 -357.15,-102.03 357.15,-102.07 -102.03,102.07 z"
         style="fill:none;stroke:#000094;stroke-width:25.51119995;stroke-linecap:butt;stroke-linejoin:miter;stroke-miterlimit:4;stroke-dasharray:none;stroke-opacity:1"
         id="path3413"
         inkscape:connector-curvature="0" /><path
         d="m 1529.45,2556.02 0,1480.93"
         style="fill:none;stroke:#000094;stroke-width:24.87999916;stroke-linecap:butt;stroke-linejoin:miter;stroke-miterlimit:4;stroke-dasharray:none;stroke-opacity:1"
         id="path3415"
         inkscape:connector-curvature="0" /><path
         d="m 1529.45,3788.12 99.53,-99.49 -99.53,348.32 -99.49,-348.32 99.49,99.49 z"
         style="fill:#000094;fill-opacity:1;fill-rule:evenodd;stroke:none"
         id="path3417"
         inkscape:connector-curvature="0" /><path
         d="m 1529.45,3788.12 99.53,-99.49 -99.53,348.32 -99.49,-348.32 99.49,99.49 z"
         style="fill:none;stroke:#000094;stroke-width:24.87999916;stroke-linecap:butt;stroke-linejoin:miter;stroke-miterlimit:4;stroke-dasharray:none;stroke-opacity:1"
         id="path3419"
         inkscape:connector-curvature="0" /><path
         d="m 1081.48,2556.02 0,1480.93"
         style="fill:none;stroke:#000094;stroke-width:24.87999916;stroke-linecap:butt;stroke-linejoin:miter;stroke-miterlimit:4;stroke-dasharray:none;stroke-opacity:1"
         id="path3421"
         inkscape:connector-curvature="0" /><path
         d="m 1081.48,3788.12 99.5,-99.49 -99.5,348.32 -99.531,-348.32 99.531,99.49 z"
         style="fill:#000094;fill-opacity:1;fill-rule:evenodd;stroke:none"
         id="path3423"
         inkscape:connector-curvature="0" /><path
         d="m 1081.48,3788.12 99.5,-99.49 -99.5,348.32 -99.531,-348.32 99.531,99.49 z"
         style="fill:none;stroke:#000094;stroke-width:24.87999916;stroke-linecap:butt;stroke-linejoin:miter;stroke-miterlimit:4;stroke-dasharray:none;stroke-opacity:1"
         id="path3425"
         inkscape:connector-curvature="0" /><path
         d="m 649.449,2556.02 0,1480.93"
         style="fill:none;stroke:#000094;stroke-width:24.87999916;stroke-linecap:butt;stroke-linejoin:miter;stroke-miterlimit:4;stroke-dasharray:none;stroke-opacity:1"
         id="path3427"
         inkscape:connector-curvature="0" /><path
         d="m 649.449,3788.12 99.531,-99.49 -99.531,348.32 -99.488,-348.32 99.488,99.49 z"
         style="fill:#000094;fill-opacity:1;fill-rule:evenodd;stroke:none"
         id="path3429"
         inkscape:connector-curvature="0" /><path
         d="m 649.449,3788.12 99.531,-99.49 -99.531,348.32 -99.488,-348.32 99.488,99.49 z"
         style="fill:none;stroke:#000094;stroke-width:24.87999916;stroke-linecap:butt;stroke-linejoin:miter;stroke-miterlimit:4;stroke-dasharray:none;stroke-opacity:1"
         id="path3431"
         inkscape:connector-curvature="0" /><path
         d="M 480.621,4066.72 1871.99,5008.98"
         style="fill:#0000ff;fill-opacity:1;fill-rule:nonzero;stroke:none"
         id="path3433"
         inkscape:connector-curvature="0" /><path
         d="M 480.621,4066.72 1871.99,5008.98"
         style="fill:none;stroke:#000094;stroke-width:24.79999924;stroke-linecap:butt;stroke-linejoin:miter;stroke-miterlimit:4;stroke-dasharray:none;stroke-opacity:1"
         id="path3435"
         inkscape:connector-curvature="0" /><path
         d="m 1666.64,4869.92 -26.52,-137.77 231.87,276.83 -343.12,-112.57 137.77,-26.49 z"
         style="fill:#000094;fill-opacity:1;fill-rule:evenodd;stroke:none"
         id="path3437"
         inkscape:connector-curvature="0" /><path
         d="m 1666.64,4869.92 -26.52,-137.78 231.88,276.84 -343.12,-112.57 137.76,-26.49 z"
         style="fill:none;stroke:#000094;stroke-width:24.79999924;stroke-linecap:butt;stroke-linejoin:miter;stroke-miterlimit:4;stroke-dasharray:none;stroke-opacity:1"
         id="path3439"
         inkscape:connector-curvature="0" /><path
         d="m 1106.33,4067.11 782.22,527.03"
         style="fill:#0000ff;fill-opacity:1;fill-rule:nonzero;stroke:none"
         id="path3441"
         inkscape:connector-curvature="0" /><path
         d="m 1106.33,4067.11 782.22,527.03"
         style="fill:none;stroke:#000094;stroke-width:24.79999924;stroke-linecap:butt;stroke-linejoin:miter;stroke-miterlimit:4;stroke-dasharray:none;stroke-opacity:1"
         id="path3443"
         inkscape:connector-curvature="0" /><path
         d="m 1682.89,4455.55 -26.84,-137.7 232.5,276.29 -343.35,-111.76 137.69,-26.83 z"
         style="fill:#000094;fill-opacity:1;fill-rule:evenodd;stroke:none"
         id="path3445"
         inkscape:connector-curvature="0" /><path
         d="m 1682.89,4455.54 -26.83,-137.69 232.5,276.29 -343.37,-111.76 137.7,-26.84 z"
         style="fill:none;stroke:#000094;stroke-width:24.79999924;stroke-linecap:butt;stroke-linejoin:miter;stroke-miterlimit:4;stroke-dasharray:none;stroke-opacity:1"
         id="path3447"
         inkscape:connector-curvature="0" /><path
         d="m 1933.24,4827.5 4347.62,0"
         style="fill:none;stroke:#000094;stroke-width:25.51119995;stroke-linecap:butt;stroke-linejoin:miter;stroke-miterlimit:4;stroke-dasharray:none;stroke-opacity:1"
         id="path3449"
         inkscape:connector-curvature="0" /><path
         d="m 6025.74,4827.5 -102.03,-102.07 357.15,102.07 -357.15,102.03 102.03,-102.03 z"
         style="fill:#000094;fill-opacity:1;fill-rule:evenodd;stroke:none"
         id="path3451"
         inkscape:connector-curvature="0" /><path
         d="m 6025.74,4827.5 -102.03,-102.07 357.15,102.07 -357.15,102.03 102.03,-102.03 z"
         style="fill:none;stroke:#000094;stroke-width:25.51119995;stroke-linecap:butt;stroke-linejoin:miter;stroke-miterlimit:4;stroke-dasharray:none;stroke-opacity:1"
         id="path3453"
         inkscape:connector-curvature="0" /><path
         d="m 1933.24,4443.48 4347.62,0"
         style="fill:none;stroke:#000094;stroke-width:25.51119995;stroke-linecap:butt;stroke-linejoin:miter;stroke-miterlimit:4;stroke-dasharray:none;stroke-opacity:1"
         id="path3455"
         inkscape:connector-curvature="0" /><path
         d="m 6025.74,4443.48 -102.03,-102.03 357.15,102.03 -357.15,102.03 102.03,-102.03 z"
         style="fill:#000094;fill-opacity:1;fill-rule:evenodd;stroke:none"
         id="path3457"
         inkscape:connector-curvature="0" /><path
         d="m 6025.74,4443.48 -102.03,-102.03 357.15,102.03 -357.15,102.03 102.03,-102.03 z"
         style="fill:none;stroke:#000094;stroke-width:25.51119995;stroke-linecap:butt;stroke-linejoin:miter;stroke-miterlimit:4;stroke-dasharray:none;stroke-opacity:1"
         id="path3459"
         inkscape:connector-curvature="0" /><path
         d="M 6321.21,5008.98 7712.54,4066.72"
         style="fill:#0000ff;fill-opacity:1;fill-rule:nonzero;stroke:none"
         id="path3461"
         inkscape:connector-curvature="0" /><path
         d="M 6321.21,5008.98 7712.54,4066.72"
         style="fill:none;stroke:#000094;stroke-width:24.79999924;stroke-linecap:butt;stroke-linejoin:miter;stroke-miterlimit:4;stroke-dasharray:none;stroke-opacity:1"
         id="path3463"
         inkscape:connector-curvature="0" /><path
         d="m 7507.23,4205.78 -137.78,-26.52 343.09,-112.54 -231.84,276.8 26.53,-137.74 z"
         style="fill:#000094;fill-opacity:1;fill-rule:evenodd;stroke:none"
         id="path3465"
         inkscape:connector-curvature="0" /><path
         d="m 7507.23,4205.78 -137.77,-26.52 343.09,-112.54 -231.85,276.8 26.53,-137.74 z"
         style="fill:none;stroke:#000094;stroke-width:24.79999924;stroke-linecap:butt;stroke-linejoin:miter;stroke-miterlimit:4;stroke-dasharray:none;stroke-opacity:1"
         id="path3467"
         inkscape:connector-curvature="0" /><path
         d="m 6304.65,4594.14 782.23,-527.03"
         style="fill:#0000ff;fill-opacity:1;fill-rule:nonzero;stroke:none"
         id="path3469"
         inkscape:connector-curvature="0" /><path
         d="m 6304.65,4594.14 782.23,-527.03"
         style="fill:none;stroke:#000094;stroke-width:24.79999924;stroke-linecap:butt;stroke-linejoin:miter;stroke-miterlimit:4;stroke-dasharray:none;stroke-opacity:1"
         id="path3471"
         inkscape:connector-curvature="0" /><path
         d="m 6881.17,4205.66 -137.69,-26.83 343.4,-111.72 -232.54,276.25 26.83,-137.7 z"
         style="fill:#000094;fill-opacity:1;fill-rule:evenodd;stroke:none"
         id="path3473"
         inkscape:connector-curvature="0" /><path
         d="m 6881.17,4205.67 -137.7,-26.84 343.41,-111.72 -232.54,276.25 26.83,-137.69 z"
         style="fill:none;stroke:#000094;stroke-width:24.79999924;stroke-linecap:butt;stroke-linejoin:miter;stroke-miterlimit:4;stroke-dasharray:none;stroke-opacity:1"
         id="path3475"
         inkscape:connector-curvature="0" /><path
         d="m 7545.47,4036.95 0,-1480.93"
         style="fill:none;stroke:#000094;stroke-width:24.87999916;stroke-linecap:butt;stroke-linejoin:miter;stroke-miterlimit:4;stroke-dasharray:none;stroke-opacity:1"
         id="path3477"
         inkscape:connector-curvature="0" /><path
         d="m 7545.47,2804.8 -99.53,99.54 99.53,-348.32 99.53,348.32 -99.53,-99.54 z"
         style="fill:#000094;fill-opacity:1;fill-rule:evenodd;stroke:none"
         id="path3479"
         inkscape:connector-curvature="0" /><path
         d="m 7545.47,2804.8 -99.53,99.54 99.53,-348.32 99.53,348.32 -99.53,-99.54 z"
         style="fill:none;stroke:#000094;stroke-width:24.87999916;stroke-linecap:butt;stroke-linejoin:miter;stroke-miterlimit:4;stroke-dasharray:none;stroke-opacity:1"
         id="path3481"
         inkscape:connector-curvature="0" /><path
         d="m 7097.46,4036.95 0,-1480.93"
         style="fill:none;stroke:#000094;stroke-width:24.87999916;stroke-linecap:butt;stroke-linejoin:miter;stroke-miterlimit:4;stroke-dasharray:none;stroke-opacity:1"
         id="path3483"
         inkscape:connector-curvature="0" /><path
         d="m 7097.46,2804.8 -99.49,99.54 99.49,-348.32 99.53,348.32 -99.53,-99.54 z"
         style="fill:#000094;fill-opacity:1;fill-rule:evenodd;stroke:none"
         id="path3485"
         inkscape:connector-curvature="0" /><path
         d="m 7097.46,2804.8 -99.49,99.54 99.49,-348.32 99.53,348.32 -99.53,-99.54 z"
         style="fill:none;stroke:#000094;stroke-width:24.87999916;stroke-linecap:butt;stroke-linejoin:miter;stroke-miterlimit:4;stroke-dasharray:none;stroke-opacity:1"
         id="path3487"
         inkscape:connector-curvature="0" /><path
         d="m 6665.47,4036.95 0,-1480.93"
         style="fill:none;stroke:#000094;stroke-width:24.87999916;stroke-linecap:butt;stroke-linejoin:miter;stroke-miterlimit:4;stroke-dasharray:none;stroke-opacity:1"
         id="path3489"
         inkscape:connector-curvature="0" /><path
         d="m 6665.47,2804.8 -99.53,99.54 99.53,-348.32 99.53,348.32 -99.53,-99.54 z"
         style="fill:#000094;fill-opacity:1;fill-rule:evenodd;stroke:none"
         id="path3491"
         inkscape:connector-curvature="0" /><path
         d="m 6665.47,2804.8 -99.53,99.54 99.53,-348.32 99.53,348.32 -99.53,-99.54 z"
         style="fill:none;stroke:#000094;stroke-width:24.87999916;stroke-linecap:butt;stroke-linejoin:miter;stroke-miterlimit:4;stroke-dasharray:none;stroke-opacity:1"
         id="path3493"
         inkscape:connector-curvature="0" /><path
         d="m 1529.45,2528.95 0,-1480.94"
         style="fill:none;stroke:#000094;stroke-width:24.87999916;stroke-linecap:butt;stroke-linejoin:miter;stroke-miterlimit:4;stroke-dasharray:none;stroke-opacity:1"
         id="path3495"
         inkscape:connector-curvature="0" /><path
         d="m 1529.45,1296.8 -99.49,99.53 99.49,-348.32 99.53,348.32 -99.53,-99.53 z"
         style="fill:#000094;fill-opacity:1;fill-rule:evenodd;stroke:none"
         id="path3497"
         inkscape:connector-curvature="0" /><path
         d="m 1529.45,1296.8 -99.49,99.53 99.49,-348.32 99.53,348.32 -99.53,-99.53 z"
         style="fill:none;stroke:#000094;stroke-width:24.87999916;stroke-linecap:butt;stroke-linejoin:miter;stroke-miterlimit:4;stroke-dasharray:none;stroke-opacity:1"
         id="path3499"
         inkscape:connector-curvature="0" /><path
         d="m 1081.48,2528.95 0,-1480.94"
         style="fill:none;stroke:#000094;stroke-width:24.87999916;stroke-linecap:butt;stroke-linejoin:miter;stroke-miterlimit:4;stroke-dasharray:none;stroke-opacity:1"
         id="path3501"
         inkscape:connector-curvature="0" /><path
         d="m 1081.48,1296.8 -99.531,99.53 99.531,-348.32 99.5,348.32 -99.5,-99.53 z"
         style="fill:#000094;fill-opacity:1;fill-rule:evenodd;stroke:none"
         id="path3503"
         inkscape:connector-curvature="0" /><path
         d="m 1081.48,1296.8 -99.531,99.53 99.531,-348.32 99.5,348.32 -99.5,-99.53 z"
         style="fill:none;stroke:#000094;stroke-width:24.87999916;stroke-linecap:butt;stroke-linejoin:miter;stroke-miterlimit:4;stroke-dasharray:none;stroke-opacity:1"
         id="path3505"
         inkscape:connector-curvature="0" /><path
         d="m 649.449,2528.95 0,-1480.94"
         style="fill:none;stroke:#000094;stroke-width:24.87999916;stroke-linecap:butt;stroke-linejoin:miter;stroke-miterlimit:4;stroke-dasharray:none;stroke-opacity:1"
         id="path3507"
         inkscape:connector-curvature="0" /><path
         d="m 649.449,1296.8 -99.488,99.53 99.488,-348.32 99.531,348.32 -99.531,-99.53 z"
         style="fill:#000094;fill-opacity:1;fill-rule:evenodd;stroke:none"
         id="path3509"
         inkscape:connector-curvature="0" /><path
         d="m 649.449,1296.8 -99.488,99.53 99.488,-348.32 99.531,348.32 -99.531,-99.53 z"
         style="fill:none;stroke:#000094;stroke-width:24.87999916;stroke-linecap:butt;stroke-linejoin:miter;stroke-miterlimit:4;stroke-dasharray:none;stroke-opacity:1"
         id="path3511"
         inkscape:connector-curvature="0" /><path
         d="M 480.621,1018.24 1871.99,75.9805"
         style="fill:#0000ff;fill-opacity:1;fill-rule:nonzero;stroke:none"
         id="path3513"
         inkscape:connector-curvature="0" /><path
         d="M 480.621,1018.24 1871.99,75.9805"
         style="fill:none;stroke:#000094;stroke-width:24.79999924;stroke-linecap:butt;stroke-linejoin:miter;stroke-miterlimit:4;stroke-dasharray:none;stroke-opacity:1"
         id="path3515"
         inkscape:connector-curvature="0" /><path
         d="M 1666.64,215.039 1528.87,188.52 1871.99,75.9805 1640.12,352.809 l 26.52,-137.77 z"
         style="fill:#000094;fill-opacity:1;fill-rule:evenodd;stroke:none"
         id="path3517"
         inkscape:connector-curvature="0" /><path
         d="M 1666.64,215.039 1528.86,188.508 1871.98,75.9766 1640.12,352.805 1666.64,215.039 Z"
         style="fill:none;stroke:#000094;stroke-width:24.79999924;stroke-linecap:butt;stroke-linejoin:miter;stroke-miterlimit:4;stroke-dasharray:none;stroke-opacity:1"
         id="path3519"
         inkscape:connector-curvature="0" /><path
         d="M 1106.33,1017.85 1888.55,490.82"
         style="fill:#0000ff;fill-opacity:1;fill-rule:nonzero;stroke:none"
         id="path3521"
         inkscape:connector-curvature="0" /><path
         d="M 1106.33,1017.85 1888.55,490.82"
         style="fill:none;stroke:#000094;stroke-width:24.79999924;stroke-linecap:butt;stroke-linejoin:miter;stroke-miterlimit:4;stroke-dasharray:none;stroke-opacity:1"
         id="path3523"
         inkscape:connector-curvature="0" /><path
         d="m 1682.89,629.379 -137.69,-26.84 343.35,-111.719 -232.5,276.25 26.84,-137.691 z"
         style="fill:#000094;fill-opacity:1;fill-rule:evenodd;stroke:none"
         id="path3525"
         inkscape:connector-curvature="0" /><path
         d="m 1682.89,629.371 -137.69,-26.828 343.35,-111.727 -232.5,276.258 26.84,-137.703 z"
         style="fill:none;stroke:#000094;stroke-width:24.79999924;stroke-linecap:butt;stroke-linejoin:miter;stroke-miterlimit:4;stroke-dasharray:none;stroke-opacity:1"
         id="path3527"
         inkscape:connector-curvature="0" /><path
         d="m 1933.24,257.461 4347.62,0"
         style="fill:none;stroke:#000094;stroke-width:25.51119995;stroke-linecap:butt;stroke-linejoin:miter;stroke-miterlimit:4;stroke-dasharray:none;stroke-opacity:1"
         id="path3529"
         inkscape:connector-curvature="0" /><path
         d="M 6025.74,257.461 5923.71,155.43 6280.86,257.461 5923.71,359.488 6025.74,257.461 Z"
         style="fill:#000094;fill-opacity:1;fill-rule:evenodd;stroke:none"
         id="path3531"
         inkscape:connector-curvature="0" /><path
         d="M 6025.74,257.461 5923.71,155.43 6280.86,257.461 5923.71,359.492 6025.74,257.461 Z"
         style="fill:none;stroke:#000094;stroke-width:25.51119995;stroke-linecap:butt;stroke-linejoin:miter;stroke-miterlimit:4;stroke-dasharray:none;stroke-opacity:1"
         id="path3533"
         inkscape:connector-curvature="0" /><path
         d="m 1933.24,641.449 4347.62,0"
         style="fill:none;stroke:#000094;stroke-width:25.51119995;stroke-linecap:butt;stroke-linejoin:miter;stroke-miterlimit:4;stroke-dasharray:none;stroke-opacity:1"
         id="path3535"
         inkscape:connector-curvature="0" /><path
         d="M 6025.74,641.449 5923.71,539.41 6280.86,641.449 5923.71,743.52 6025.74,641.449 Z"
         style="fill:#000094;fill-opacity:1;fill-rule:evenodd;stroke:none"
         id="path3537"
         inkscape:connector-curvature="0" /><path
         d="M 6025.74,641.449 5923.71,539.41 6280.86,641.449 5923.71,743.52 6025.74,641.449 Z"
         style="fill:none;stroke:#000094;stroke-width:25.51119995;stroke-linecap:butt;stroke-linejoin:miter;stroke-miterlimit:4;stroke-dasharray:none;stroke-opacity:1"
         id="path3539"
         inkscape:connector-curvature="0" /><path
         d="M 6321.21,75.9805 7712.54,1018.24"
         style="fill:#0000ff;fill-opacity:1;fill-rule:nonzero;stroke:none"
         id="path3541"
         inkscape:connector-curvature="0" /><path
         d="M 6321.21,75.9805 7712.54,1018.24"
         style="fill:none;stroke:#000094;stroke-width:24.79999924;stroke-linecap:butt;stroke-linejoin:miter;stroke-miterlimit:4;stroke-dasharray:none;stroke-opacity:1"
         id="path3543"
         inkscape:connector-curvature="0" /><path
         d="M 7507.23,879.18 7480.7,741.41 7712.54,1018.24 7369.45,905.699 7507.23,879.18 Z"
         style="fill:#000094;fill-opacity:1;fill-rule:evenodd;stroke:none"
         id="path3545"
         inkscape:connector-curvature="0" /><path
         d="m 7507.23,879.184 -26.52,-137.778 231.83,276.834 -343.09,-112.537 137.78,-26.519 z"
         style="fill:none;stroke:#000094;stroke-width:24.79999924;stroke-linecap:butt;stroke-linejoin:miter;stroke-miterlimit:4;stroke-dasharray:none;stroke-opacity:1"
         id="path3547"
         inkscape:connector-curvature="0" /><path
         d="m 6304.65,490.82 782.23,527.03"
         style="fill:#0000ff;fill-opacity:1;fill-rule:nonzero;stroke:none"
         id="path3549"
         inkscape:connector-curvature="0" /><path
         d="m 6304.65,490.82 782.23,527.03"
         style="fill:none;stroke:#000094;stroke-width:24.79999924;stroke-linecap:butt;stroke-linejoin:miter;stroke-miterlimit:4;stroke-dasharray:none;stroke-opacity:1"
         id="path3551"
         inkscape:connector-curvature="0" /><path
         d="m 6881.17,879.262 -26.83,-137.703 232.54,276.291 -343.4,-111.76 137.69,-26.828 z"
         style="fill:#000094;fill-opacity:1;fill-rule:evenodd;stroke:none"
         id="path3553"
         inkscape:connector-curvature="0" /><path
         d="m 6881.17,879.25 -26.83,-137.684 232.53,276.274 -343.4,-111.75 137.7,-26.84 z"
         style="fill:none;stroke:#000094;stroke-width:24.79999924;stroke-linecap:butt;stroke-linejoin:miter;stroke-miterlimit:4;stroke-dasharray:none;stroke-opacity:1"
         id="path3555"
         inkscape:connector-curvature="0" /><path
         d="m 7545.47,1048.01 0,1480.94"
         style="fill:none;stroke:#000094;stroke-width:24.87999916;stroke-linecap:butt;stroke-linejoin:miter;stroke-miterlimit:4;stroke-dasharray:none;stroke-opacity:1"
         id="path3557"
         inkscape:connector-curvature="0" /><path
         d="m 7545.47,2280.12 99.53,-99.5 -99.53,348.33 -99.53,-348.33 99.53,99.5 z"
         style="fill:#000094;fill-opacity:1;fill-rule:evenodd;stroke:none"
         id="path3559"
         inkscape:connector-curvature="0" /><path
         d="m 7545.47,2280.12 99.53,-99.5 -99.53,348.33 -99.53,-348.33 99.53,99.5 z"
         style="fill:none;stroke:#000094;stroke-width:24.87999916;stroke-linecap:butt;stroke-linejoin:miter;stroke-miterlimit:4;stroke-dasharray:none;stroke-opacity:1"
         id="path3561"
         inkscape:connector-curvature="0" /><path
         d="m 7097.46,1048.01 0,1480.94"
         style="fill:none;stroke:#000094;stroke-width:24.87999916;stroke-linecap:butt;stroke-linejoin:miter;stroke-miterlimit:4;stroke-dasharray:none;stroke-opacity:1"
         id="path3563"
         inkscape:connector-curvature="0" /><path
         d="m 7097.46,2280.12 99.53,-99.5 -99.53,348.33 -99.49,-348.33 99.49,99.5 z"
         style="fill:#000094;fill-opacity:1;fill-rule:evenodd;stroke:none"
         id="path3565"
         inkscape:connector-curvature="0" /><path
         d="m 7097.46,2280.12 99.53,-99.5 -99.53,348.33 -99.49,-348.33 99.49,99.5 z"
         style="fill:none;stroke:#000094;stroke-width:24.87999916;stroke-linecap:butt;stroke-linejoin:miter;stroke-miterlimit:4;stroke-dasharray:none;stroke-opacity:1"
         id="path3567"
         inkscape:connector-curvature="0" /><path
         d="m 6665.47,1048.01 0,1480.94"
         style="fill:none;stroke:#000094;stroke-width:24.87999916;stroke-linecap:butt;stroke-linejoin:miter;stroke-miterlimit:4;stroke-dasharray:none;stroke-opacity:1"
         id="path3569"
         inkscape:connector-curvature="0" /><path
         d="m 6665.47,2280.12 99.53,-99.5 -99.53,348.33 -99.53,-348.33 99.53,99.5 z"
         style="fill:#000094;fill-opacity:1;fill-rule:evenodd;stroke:none"
         id="path3571"
         inkscape:connector-curvature="0" /><path
         d="m 6665.47,2280.12 99.53,-99.5 -99.53,348.33 -99.53,-348.33 99.53,99.5 z"
         style="fill:none;stroke:#000094;stroke-width:24.87999916;stroke-linecap:butt;stroke-linejoin:miter;stroke-miterlimit:4;stroke-dasharray:none;stroke-opacity:1"
         id="path3573"
         inkscape:connector-curvature="0" /><path
         d="m 217.461,1086.41 0,2945.86"
         style="fill:none;stroke:#000000;stroke-width:20;stroke-linecap:butt;stroke-linejoin:miter;stroke-miterlimit:4;stroke-dasharray:none;stroke-opacity:1"
         id="path3575"
         inkscape:connector-curvature="0" /><path
         d="m 217.461,1286.41 -80,80 80,-280 80,280 -80,-80 z"
         style="fill:#000000;fill-opacity:1;fill-rule:evenodd;stroke:none"
         id="path3577"
         inkscape:connector-curvature="0" /><path
         d="m 217.461,1286.41 -80,80 80,-280 80,280 -80,-80 z"
         style="fill:none;stroke:#000000;stroke-width:20;stroke-linecap:butt;stroke-linejoin:miter;stroke-miterlimit:4;stroke-dasharray:none;stroke-opacity:1"
         id="path3579"
         inkscape:connector-curvature="0" /><path
         d="m 217.461,3832.27 80,-80 -80,280 -80,-280 80,80 z"
         style="fill:#000000;fill-opacity:1;fill-rule:evenodd;stroke:none"
         id="path3581"
         inkscape:connector-curvature="0" /><path
         d="m 217.461,3832.27 80,-80 -80,280 -80,-280 80,80 z"
         style="fill:none;stroke:#000000;stroke-width:20;stroke-linecap:butt;stroke-linejoin:miter;stroke-miterlimit:4;stroke-dasharray:none;stroke-opacity:1"
         id="path3583"
         inkscape:connector-curvature="0" /><g
         id="g3585"
         transform="scale(10,10)"><text
           transform="matrix(1,0,0,-1,-1.3875,243.2)"
           style="font-style:italic;font-variant:normal;font-size:38.40000153px;font-family:LiberationSerif;-inkscape-font-specification:LiberationSerif-Italic;writing-mode:lr-tb;fill:#000000;fill-opacity:1;fill-rule:nonzero;stroke:none"
           id="text3587"><tspan
             x="0"
             y="0"
             id="tspan3589">h</tspan></text>
</g></g></g></svg>